<svg xmlns="http://www.w3.org/2000/svg" viewBox="0 0 132 199.91"><defs><style>.cls-1{fill:#666;}.cls-1,.cls-2,.cls-3,.cls-4,.cls-5,.cls-6,.cls-7,.cls-8,.cls-9{stroke:#000;}.cls-1,.cls-2,.cls-3,.cls-4,.cls-5,.cls-6,.cls-7{stroke-miterlimit:10;stroke-width:2px;}.cls-2{fill:#e6e6e6;}.cls-3{fill:none;}.cls-4{fill:#d9e021;}.cls-5{fill:#ff1d25;}.cls-6{fill:gray;}.cls-8{fill:#c1272d;}.cls-8,.cls-9{stroke-linecap:round;stroke-linejoin:round;}.cls-9{fill:#ed1c24;}</style></defs><title>Beanie</title><g id="Layer_2" data-name="Layer 2"><g id="Beanie"><path class="cls-1" d="M40,137.41c0,.21,0,.42,0,.63a14.86,14.86,0,0,0-2-.13A16,16,0,0,0,22.07,152.4c-.05.5-.07,1-.07,1.51a15.8,15.8,0,0,0,1.74,7.25,54.41,54.41,0,0,1-9.24.75,56.75,56.75,0,0,1-7-.42A37.9,37.9,0,0,1,7,155.41c0-1,0-2,.12-3C8.39,135.85,19.94,122.91,34,122.91a22.84,22.84,0,0,1,8.44,1.62C41,127.31,40,132,40,137.41Z"/><line class="cls-1" x1="28" y1="123.91" x2="29" y2="139.91"/><line class="cls-1" x1="14" y1="132.91" x2="26" y2="142.91"/><line class="cls-1" x1="8" y1="145.91" x2="22" y2="148.91"/><path class="cls-2" d="M92.92,172.91a28,28,0,0,1-55.84,0Z"/><path class="cls-2" d="M93,124v36.9c0,.67,0,1.34-.08,2H37.08c-.06-.66-.08-1.33-.08-2v-37a10,10,0,0,1,10-10H82.9A10.12,10.12,0,0,1,93,124Z"/><path class="cls-1" d="M91.44,137.41c0,.21,0,.42,0,.63a14.86,14.86,0,0,1,2-.13,16,16,0,0,1,15.93,14.49c0,.5.07,1,.07,1.51a15.8,15.8,0,0,1-1.74,7.25,54.41,54.41,0,0,0,9.24.75,56.75,56.75,0,0,0,7-.42,37.9,37.9,0,0,0,.48-6.08c0-1,0-2-.12-3-1.27-16.52-12.82-29.46-26.88-29.46A22.84,22.84,0,0,0,89,124.53C90.47,127.31,91.44,132,91.44,137.41Z"/><line class="cls-3" x1="103.44" y1="123.91" x2="102.44" y2="139.91"/><line class="cls-3" x1="117.44" y1="132.91" x2="105.44" y2="142.91"/><line class="cls-3" x1="123.44" y1="145.91" x2="109.44" y2="148.91"/><ellipse class="cls-4" cx="73.5" cy="129.91" rx="3.5" ry="4"/><ellipse class="cls-4" cx="61.5" cy="129.91" rx="3.5" ry="4"/><ellipse class="cls-4" cx="48.5" cy="129.91" rx="3.5" ry="4"/><path class="cls-2" d="M31,172.63a17.47,17.47,0,0,1-.33,3.42A7.73,7.73,0,0,1,26,177.63a7.52,7.52,0,0,1-1.91-.24,9.29,9.29,0,0,0,.16-1.76,8.88,8.88,0,0,0-6.34-8.76,7.62,7.62,0,0,0-4.74.31,9,9,0,0,0-5.42,8.45,9.53,9.53,0,0,0,1.08,4.45,7.57,7.57,0,0,1-6.32-.3,17.63,17.63,0,0,1,1.42-16.87h0A14.61,14.61,0,0,1,16,156.27a14.12,14.12,0,0,1,9.16,3.41A16.89,16.89,0,0,1,31,172.63Z"/><path class="cls-2" d="M131,172.63a17.47,17.47,0,0,1-.33,3.42,7.73,7.73,0,0,1-4.67,1.58,7.52,7.52,0,0,1-1.91-.24,9.29,9.29,0,0,0,.16-1.76,8.88,8.88,0,0,0-6.34-8.76,7.62,7.62,0,0,0-4.74.31,9,9,0,0,0-5.42,8.45,9.53,9.53,0,0,0,1.08,4.45,7.57,7.57,0,0,1-6.32-.3,17.63,17.63,0,0,1,1.42-16.87h0A14.61,14.61,0,0,1,116,156.27a14.12,14.12,0,0,1,9.16,3.41A16.89,16.89,0,0,1,131,172.63Z"/><line class="cls-3" x1="93" y1="162.91" x2="92.92" y2="162.91"/><line class="cls-3" x1="37.08" y1="162.91" x2="37" y2="162.91"/><rect class="cls-5" x="37" y="162.91" width="56" height="9"/><line class="cls-3" x1="17" y1="71.91" x2="111" y2="71.91"/><path class="cls-2" d="M97,71.91c0,19.88-14.77,36-33,36s-33-16.12-33-36,14.77-36,33-36a29,29,0,0,1,3.62.22,56.21,56.21,0,0,0,7.55,5.63C79.07,43.94,84,46.43,88,47.21A37.67,37.67,0,0,1,97,71.91Z"/><circle class="cls-4" cx="12.5" cy="71.41" r="4.5"/><circle class="cls-4" cx="115.5" cy="71.41" r="4.5"/><path class="cls-6" d="M70,73.91c-.22,4.46-3.49,8-7.48,8s-7.26-3.54-7.48-8Z"/><ellipse class="cls-7" cx="46.5" cy="64.91" rx="2.5" ry="4"/><ellipse class="cls-7" cx="79.5" cy="64.91" rx="2.5" ry="4"/><polygon class="cls-8" points="92.85 17.65 90.85 16.49 89.29 18.04 87.88 16.26 85.79 17.1 85.18 14.96 82.88 14.96 83.16 12.79 81 11.96 82.13 10.1 80.44 8.54 82.25 7.27 81.27 5.24 83.49 4.75 83.39 2.56 85.67 2.92 86.46 0.89 88.46 2.05 90.01 0.5 91.43 2.29 93.51 1.45 94.13 3.58 96.43 3.58 96.15 5.75 98.31 6.59 97.17 8.45 98.87 10 97.06 11.27 98.03 13.3 95.82 13.79 95.92 15.99 93.64 15.63 92.85 17.65"/><path class="cls-9" d="M103.05,52.82a6.52,6.52,0,0,0-1.28-2.58c-.65-.61-1.34-1.21-2-1.81A89.19,89.19,0,0,0,77.21,35.12a88.9,88.9,0,0,0-25.3-6.69h0c-.56-.07-1.15-.11-1.7-.14a.6.6,0,0,1,.06-.11C59.84,12.79,76,5,89.14,10.49c13.41,5.61,19.11,23.22,14.21,41.25Z"/><path class="cls-8" d="M102.75,56.79a6.32,6.32,0,0,1-2.16,2.67,7.12,7.12,0,0,1-6.67.79l-.24-.09a7.27,7.27,0,0,1-3.61-3.24,78.48,78.48,0,0,0-18.52-10.8,79.41,79.41,0,0,0-18-5.23h0a7.18,7.18,0,0,1-5.77,0,6.7,6.7,0,0,1-1.46-.82,7.1,7.1,0,0,1-1.19-1.06,6.4,6.4,0,0,1,4.07-10.81h0s0,0,0,0c.34,0,.67,0,1,.06.55,0,1.14.07,1.7.14h0a88.9,88.9,0,0,1,25.3,6.69A89.19,89.19,0,0,1,99.72,48.43a6.89,6.89,0,0,1,2,1.81,6.52,6.52,0,0,1,1.28,2.58A6.26,6.26,0,0,1,102.75,56.79Z"/></g></g></svg>