<svg xmlns="http://www.w3.org/2000/svg" viewBox="0 0 132 181.89"><defs><style>.cls-1{fill:#666;}.cls-1,.cls-2,.cls-3,.cls-4,.cls-5,.cls-6,.cls-7,.cls-8,.cls-9{stroke:#000;stroke-miterlimit:10;}.cls-1,.cls-2,.cls-3,.cls-4,.cls-5,.cls-6,.cls-7{stroke-width:2px;}.cls-2{fill:#e6e6e6;}.cls-3{fill:none;}.cls-4{fill:#d9e021;}.cls-5{fill:#ff1d25;}.cls-6{fill:gray;}.cls-8{fill:#ed1c24;}.cls-8,.cls-9{stroke-linecap:round;}.cls-9{fill:#c1272d;}</style></defs><title>Asset 31</title><g id="Layer_2" data-name="Layer 2"><g id="Bow"><path class="cls-1" d="M40,119.39c0,.21,0,.42,0,.63a14.86,14.86,0,0,0-2-.13,16,16,0,0,0-15.93,14.49c-.05.5-.07,1-.07,1.51a15.8,15.8,0,0,0,1.74,7.25,54.41,54.41,0,0,1-9.24.75,56.75,56.75,0,0,1-7-.42A37.9,37.9,0,0,1,7,137.39c0-1,0-2,.12-3C8.39,117.83,19.94,104.89,34,104.89a22.84,22.84,0,0,1,8.44,1.62C41,109.29,40,114,40,119.39Z"/><line class="cls-1" x1="28" y1="105.89" x2="29" y2="121.89"/><line class="cls-1" x1="14" y1="114.89" x2="26" y2="124.89"/><line class="cls-1" x1="8" y1="127.89" x2="22" y2="130.89"/><path class="cls-2" d="M92.92,154.89a28,28,0,0,1-55.84,0Z"/><path class="cls-2" d="M93,106v36.9c0,.67,0,1.34-.08,2H37.08c-.06-.66-.08-1.33-.08-2v-37a10,10,0,0,1,10-10H82.9A10.12,10.12,0,0,1,93,106Z"/><path class="cls-1" d="M91.44,119.39c0,.21,0,.42,0,.63a14.86,14.86,0,0,1,2-.13,16,16,0,0,1,15.93,14.49c0,.5.07,1,.07,1.51a15.8,15.8,0,0,1-1.74,7.25,54.41,54.41,0,0,0,9.24.75,56.75,56.75,0,0,0,7-.42,37.9,37.9,0,0,0,.48-6.08c0-1,0-2-.12-3-1.27-16.52-12.82-29.46-26.88-29.46A22.84,22.84,0,0,0,89,106.51C90.47,109.29,91.44,114,91.44,119.39Z"/><line class="cls-3" x1="103.44" y1="105.89" x2="102.44" y2="121.89"/><line class="cls-3" x1="117.44" y1="114.89" x2="105.44" y2="124.89"/><line class="cls-3" x1="123.44" y1="127.89" x2="109.44" y2="130.89"/><ellipse class="cls-4" cx="73.5" cy="111.89" rx="3.5" ry="4"/><ellipse class="cls-4" cx="61.5" cy="111.89" rx="3.5" ry="4"/><ellipse class="cls-4" cx="48.5" cy="111.89" rx="3.5" ry="4"/><path class="cls-2" d="M31,154.61a17.47,17.47,0,0,1-.33,3.42A7.73,7.73,0,0,1,26,159.61a7.52,7.52,0,0,1-1.91-.24,9.29,9.29,0,0,0,.16-1.76,8.88,8.88,0,0,0-6.34-8.76,7.62,7.62,0,0,0-4.74.31,9,9,0,0,0-5.42,8.45,9.53,9.53,0,0,0,1.08,4.45,7.57,7.57,0,0,1-6.32-.3,17.63,17.63,0,0,1,1.42-16.87h0A14.61,14.61,0,0,1,16,138.25a14.12,14.12,0,0,1,9.16,3.41A16.89,16.89,0,0,1,31,154.61Z"/><path class="cls-2" d="M131,154.61a17.47,17.47,0,0,1-.33,3.42,7.73,7.73,0,0,1-4.67,1.58,7.52,7.52,0,0,1-1.91-.24,9.29,9.29,0,0,0,.16-1.76,8.88,8.88,0,0,0-6.34-8.76,7.62,7.62,0,0,0-4.74.31,9,9,0,0,0-5.42,8.45,9.53,9.53,0,0,0,1.08,4.45,7.57,7.57,0,0,1-6.32-.3,17.63,17.63,0,0,1,1.42-16.87h0A14.61,14.61,0,0,1,116,138.25a14.12,14.12,0,0,1,9.16,3.41A16.89,16.89,0,0,1,131,154.61Z"/><line class="cls-3" x1="93" y1="144.89" x2="92.92" y2="144.89"/><line class="cls-3" x1="37.08" y1="144.89" x2="37" y2="144.89"/><rect class="cls-5" x="37" y="144.89" width="56" height="9"/><line class="cls-3" x1="17" y1="53.89" x2="111" y2="53.89"/><path class="cls-2" d="M97,53.89c0,19.88-14.77,36-33,36s-33-16.12-33-36,14.77-36,33-36a29,29,0,0,1,3.62.22,56.21,56.21,0,0,0,7.55,5.63C79.07,25.92,84,28.41,88,29.19A37.67,37.67,0,0,1,97,53.89Z"/><circle class="cls-4" cx="12.5" cy="53.39" r="4.5"/><circle class="cls-4" cx="115.5" cy="53.39" r="4.5"/><path class="cls-6" d="M70,55.89c-.22,4.46-3.49,8-7.48,8s-7.26-3.54-7.48-8Z"/><ellipse class="cls-7" cx="46.5" cy="46.89" rx="2.5" ry="4"/><ellipse class="cls-7" cx="79.5" cy="46.89" rx="2.5" ry="4"/><path class="cls-8" d="M58.9,21.16C57.69,16.72,65.36,2.37,69.62.52c4.33.87,8,9.4,9.69,13,2.71-.06,7.1,1.78,8.07,4.61,4-.41,12.73-.75,17.29,3.46-.64,7.66-5.25,15.73-13.14,19.25-4,.4-9.51-12.39-10.32-12.86-2.88-.57-5.3-2-6.46-3.68C74,23.86,63.57,23.29,58.9,21.16Z"/><path class="cls-9" d="M74.75,24.33c-.43-2.07,1.43-9.33,4.54-10.77,1.4-.22,6.91,1.14,8.07,4.61C87,22.37,83,27.63,81.23,28,79.55,28,75.7,26.09,74.75,24.33Z"/></g></g></svg>