<svg xmlns="http://www.w3.org/2000/svg" viewBox="0 0 132 186.79"><defs><style>.cls-1{fill:#666;}.cls-1,.cls-10,.cls-11,.cls-12,.cls-2,.cls-3,.cls-4,.cls-5,.cls-6,.cls-7,.cls-8,.cls-9{stroke:#000;}.cls-1,.cls-10,.cls-12,.cls-2,.cls-3,.cls-4,.cls-5,.cls-6,.cls-7,.cls-8,.cls-9{stroke-miterlimit:10;}.cls-1,.cls-2,.cls-3,.cls-4,.cls-5,.cls-6,.cls-7{stroke-width:2px;}.cls-2{fill:#e6e6e6;}.cls-11,.cls-12,.cls-3,.cls-8{fill:none;}.cls-4{fill:#d9e021;}.cls-5{fill:#ff1d25;}.cls-6{fill:gray;}.cls-9{fill:#c1272d;}.cls-10{fill:#ed1c24;}.cls-11,.cls-12{stroke-linecap:round;}.cls-11{stroke-linejoin:round;}.cls-12{stroke-width:0.5px;}</style></defs><title>Asset 31</title><g id="Layer_2" data-name="Layer 2"><g id="Fez"><path class="cls-1" d="M40,124.29c0,.21,0,.42,0,.63a14.86,14.86,0,0,0-2-.13,16,16,0,0,0-15.93,14.49c-.05.5-.07,1-.07,1.51A15.8,15.8,0,0,0,23.74,148a54.41,54.41,0,0,1-9.24.75,56.75,56.75,0,0,1-7-.42A37.9,37.9,0,0,1,7,142.29c0-1,0-2,.12-3C8.39,122.73,19.94,109.79,34,109.79a22.84,22.84,0,0,1,8.44,1.62C41,114.19,40,118.92,40,124.29Z"/><line class="cls-1" x1="28" y1="110.79" x2="29" y2="126.79"/><line class="cls-1" x1="14" y1="119.79" x2="26" y2="129.79"/><line class="cls-1" x1="8" y1="132.79" x2="22" y2="135.79"/><path class="cls-2" d="M92.92,159.79a28,28,0,0,1-55.84,0Z"/><path class="cls-2" d="M93,110.89v36.9c0,.67,0,1.34-.08,2H37.08c-.06-.66-.08-1.33-.08-2v-37a10,10,0,0,1,10-10H82.9A10.12,10.12,0,0,1,93,110.89Z"/><path class="cls-1" d="M91.44,124.29c0,.21,0,.42,0,.63a14.86,14.86,0,0,1,2-.13,16,16,0,0,1,15.93,14.49c0,.5.07,1,.07,1.51A15.8,15.8,0,0,1,107.7,148a54.41,54.41,0,0,0,9.24.75,56.75,56.75,0,0,0,7-.42,37.9,37.9,0,0,0,.48-6.08c0-1,0-2-.12-3-1.27-16.52-12.82-29.46-26.88-29.46A22.84,22.84,0,0,0,89,111.41C90.47,114.19,91.44,118.92,91.44,124.29Z"/><line class="cls-3" x1="103.44" y1="110.79" x2="102.44" y2="126.79"/><line class="cls-3" x1="117.44" y1="119.79" x2="105.44" y2="129.79"/><line class="cls-3" x1="123.44" y1="132.79" x2="109.44" y2="135.79"/><ellipse class="cls-4" cx="73.5" cy="116.79" rx="3.5" ry="4"/><ellipse class="cls-4" cx="61.5" cy="116.79" rx="3.5" ry="4"/><ellipse class="cls-4" cx="48.5" cy="116.79" rx="3.5" ry="4"/><path class="cls-2" d="M31,159.51a17.47,17.47,0,0,1-.33,3.42A7.73,7.73,0,0,1,26,164.51a7.52,7.52,0,0,1-1.91-.24,9.29,9.29,0,0,0,.16-1.76,8.88,8.88,0,0,0-6.34-8.76,7.62,7.62,0,0,0-4.74.31,9,9,0,0,0-5.42,8.45A9.53,9.53,0,0,0,8.83,167a7.57,7.57,0,0,1-6.32-.3,17.63,17.63,0,0,1,1.42-16.87h0A14.61,14.61,0,0,1,16,143.15a14.12,14.12,0,0,1,9.16,3.41A16.89,16.89,0,0,1,31,159.51Z"/><path class="cls-2" d="M131,159.51a17.47,17.47,0,0,1-.33,3.42,7.73,7.73,0,0,1-4.67,1.58,7.52,7.52,0,0,1-1.91-.24,9.29,9.29,0,0,0,.16-1.76,8.88,8.88,0,0,0-6.34-8.76,7.62,7.62,0,0,0-4.74.31,9,9,0,0,0-5.42,8.45,9.53,9.53,0,0,0,1.08,4.45,7.57,7.57,0,0,1-6.32-.3,17.63,17.63,0,0,1,1.42-16.87h0A14.61,14.61,0,0,1,116,143.15a14.12,14.12,0,0,1,9.16,3.41A16.89,16.89,0,0,1,131,159.51Z"/><line class="cls-3" x1="93" y1="149.79" x2="92.92" y2="149.79"/><line class="cls-3" x1="37.08" y1="149.79" x2="37" y2="149.79"/><rect class="cls-5" x="37" y="149.79" width="56" height="9"/><line class="cls-3" x1="17" y1="58.79" x2="111" y2="58.79"/><path class="cls-2" d="M97,58.79c0,19.88-14.77,36-33,36s-33-16.12-33-36,14.77-36,33-36a29,29,0,0,1,3.62.22,56.21,56.21,0,0,0,7.55,5.63C79.07,30.82,84,33.31,88,34.09A37.67,37.67,0,0,1,97,58.79Z"/><circle class="cls-4" cx="12.5" cy="58.29" r="4.5"/><circle class="cls-4" cx="115.5" cy="58.29" r="4.5"/><path class="cls-6" d="M70,60.79c-.22,4.46-3.49,8-7.48,8s-7.26-3.54-7.48-8Z"/><ellipse class="cls-7" cx="46.5" cy="51.79" rx="2.5" ry="4"/><ellipse class="cls-7" cx="79.5" cy="51.79" rx="2.5" ry="4"/><line class="cls-8" x1="60.21" y1="22.43" x2="74.84" y2="1.77"/><line class="cls-8" x1="104.44" y1="16.35" x2="95.2" y2="39.66"/><path class="cls-9" d="M74.84,1.77,60.21,22.43S56.66,27.38,75.5,36.65s19.7,3,19.7,3l9.24-23.31Z"/><ellipse class="cls-10" cx="89.64" cy="9.06" rx="5" ry="16.5" transform="translate(41.92 85.48) rotate(-63.79)"/><polyline class="cls-11" points="89.63 7.94 97.24 17.13 93.78 26.7"/><circle cx="93.78" cy="26.7" r="1"/><line class="cls-12" x1="93.78" y1="26.7" x2="89.79" y2="32.54"/><line class="cls-12" x1="93.78" y1="26.7" x2="95.16" y2="32.95"/><line class="cls-12" x1="93.78" y1="26.7" x2="92.93" y2="35.2"/><line class="cls-12" x1="93.78" y1="26.7" x2="91.14" y2="34.32"/><line class="cls-12" x1="93.78" y1="26.7" x2="90.24" y2="33.88"/><line class="cls-12" x1="93.78" y1="26.7" x2="94.27" y2="34.75"/><line class="cls-12" x1="93.78" y1="26.7" x2="92.04" y2="34.76"/></g></g></svg>