<svg xmlns="http://www.w3.org/2000/svg" viewBox="0 0 114 74"><defs><style>.cls-1{fill:none;}.cls-1,.cls-2,.cls-3,.cls-4,.cls-5{stroke:#000;stroke-miterlimit:10;stroke-width:2px;}.cls-2{fill:#e6e6e6;}.cls-3{fill:#d9e021;}.cls-4{fill:gray;}</style></defs><title>Head</title><g id="Layer_2" data-name="Layer 2"><g id="Beanie"><line class="cls-1" x1="10" y1="37" x2="104" y2="37"/><path class="cls-2" d="M90,37c0,19.88-14.77,36-33,36S24,56.88,24,37,38.77,1,57,1a29,29,0,0,1,3.62.22,56.21,56.21,0,0,0,7.55,5.63C72.07,9,77,11.52,81,12.3A37.67,37.67,0,0,1,90,37Z"/><circle class="cls-3" cx="5.5" cy="36.5" r="4.5"/><circle class="cls-3" cx="108.5" cy="36.5" r="4.5"/><path class="cls-4" d="M63,39c-.22,4.46-3.49,8-7.48,8S48.24,43.46,48,39Z"/><ellipse class="cls-5" cx="39.5" cy="30" rx="2.5" ry="4"/><ellipse class="cls-5" cx="72.5" cy="30" rx="2.5" ry="4"/></g></g></svg>