<svg xmlns="http://www.w3.org/2000/svg" viewBox="0 0 132 165"><defs><style>.cls-1{fill:none;}.cls-1,.cls-2,.cls-3,.cls-4,.cls-5,.cls-6,.cls-7{stroke:#000;stroke-miterlimit:10;stroke-width:2px;}.cls-2{fill:#e6e6e6;}.cls-3{fill:#d9e021;}.cls-4{fill:gray;}.cls-6{fill:#666;}.cls-7{fill:#ff1d25;}</style></defs><title>Asset 27</title><g id="Layer_2" data-name="Layer 2"><g id="Layer_2-2" data-name="Layer 2"><line class="cls-1" x1="17" y1="37" x2="111" y2="37"/><path class="cls-2" d="M97,37c0,19.88-14.77,36-33,36S31,56.88,31,37,45.77,1,64,1a29,29,0,0,1,3.62.22,56.21,56.21,0,0,0,7.55,5.63C79.07,9,84,11.52,88,12.3A37.67,37.67,0,0,1,97,37Z"/><circle class="cls-3" cx="12.5" cy="36.5" r="4.5"/><circle class="cls-3" cx="115.5" cy="36.5" r="4.5"/><path class="cls-4" d="M70,39c-.22,4.46-3.49,8-7.48,8S55.24,43.46,55,39Z"/><ellipse class="cls-5" cx="46.5" cy="30" rx="2.5" ry="4"/><ellipse class="cls-5" cx="79.5" cy="30" rx="2.5" ry="4"/><path class="cls-6" d="M40,102.5c0,.21,0,.42,0,.63a14.86,14.86,0,0,0-2-.13,16,16,0,0,0-15.93,14.49c-.05.5-.07,1-.07,1.51a15.8,15.8,0,0,0,1.74,7.25,54.41,54.41,0,0,1-9.24.75,56.75,56.75,0,0,1-7-.42A37.9,37.9,0,0,1,7,120.5c0-1,0-2,.12-3C8.39,100.94,19.94,88,34,88a22.84,22.84,0,0,1,8.44,1.62C41,92.4,40,97.13,40,102.5Z"/><line class="cls-6" x1="28" y1="89" x2="29" y2="105"/><line class="cls-6" x1="14" y1="98" x2="26" y2="108"/><line class="cls-6" x1="8" y1="111" x2="22" y2="114"/><path class="cls-2" d="M92.92,138a28,28,0,0,1-55.84,0Z"/><path class="cls-2" d="M93,89.1V126c0,.67,0,1.34-.08,2H37.08c-.06-.66-.08-1.33-.08-2V89A10,10,0,0,1,47,79H82.9A10.12,10.12,0,0,1,93,89.1Z"/><path class="cls-6" d="M91.44,102.5c0,.21,0,.42,0,.63a14.86,14.86,0,0,1,2-.13,16,16,0,0,1,15.93,14.49c0,.5.07,1,.07,1.51a15.8,15.8,0,0,1-1.74,7.25,54.41,54.41,0,0,0,9.24.75,56.75,56.75,0,0,0,7-.42,37.9,37.9,0,0,0,.48-6.08c0-1,0-2-.12-3C123.05,100.94,111.5,88,97.44,88A22.84,22.84,0,0,0,89,89.62C90.47,92.4,91.44,97.13,91.44,102.5Z"/><line class="cls-1" x1="103.44" y1="89" x2="102.44" y2="105"/><line class="cls-1" x1="117.44" y1="98" x2="105.44" y2="108"/><line class="cls-1" x1="123.44" y1="111" x2="109.44" y2="114"/><ellipse class="cls-3" cx="73.5" cy="95" rx="3.5" ry="4"/><ellipse class="cls-3" cx="61.5" cy="95" rx="3.5" ry="4"/><ellipse class="cls-3" cx="48.5" cy="95" rx="3.5" ry="4"/><path class="cls-2" d="M31,137.72a17.47,17.47,0,0,1-.33,3.42A7.73,7.73,0,0,1,26,142.72a7.52,7.52,0,0,1-1.91-.24,9.29,9.29,0,0,0,.16-1.76A8.88,8.88,0,0,0,17.91,132a7.62,7.62,0,0,0-4.74.31,9,9,0,0,0-5.42,8.45,9.53,9.53,0,0,0,1.08,4.45,7.57,7.57,0,0,1-6.32-.3A17.63,17.63,0,0,1,3.93,128h0A14.61,14.61,0,0,1,16,121.36a14.12,14.12,0,0,1,9.16,3.41A16.89,16.89,0,0,1,31,137.72Z"/><path class="cls-2" d="M131,137.72a17.47,17.47,0,0,1-.33,3.42,7.73,7.73,0,0,1-4.67,1.58,7.52,7.52,0,0,1-1.91-.24,9.29,9.29,0,0,0,.16-1.76,8.88,8.88,0,0,0-6.34-8.76,7.62,7.62,0,0,0-4.74.31,9,9,0,0,0-5.42,8.45,9.53,9.53,0,0,0,1.08,4.45,7.57,7.57,0,0,1-6.32-.3A17.63,17.63,0,0,1,103.93,128h0A14.61,14.61,0,0,1,116,121.36a14.12,14.12,0,0,1,9.16,3.41A16.89,16.89,0,0,1,131,137.72Z"/><line class="cls-1" x1="93" y1="128" x2="92.92" y2="128"/><line class="cls-1" x1="37.08" y1="128" x2="37" y2="128"/><rect class="cls-7" x="37" y="128" width="56" height="9"/></g></g></svg>