<svg xmlns="http://www.w3.org/2000/svg" viewBox="0 0 132 191.33"><defs><style>.cls-1{fill:#666;}.cls-1,.cls-2,.cls-3,.cls-4,.cls-5,.cls-6,.cls-7,.cls-8,.cls-9{stroke:#000;stroke-miterlimit:10;}.cls-1,.cls-2,.cls-3,.cls-4,.cls-5,.cls-6,.cls-7{stroke-width:2px;}.cls-2{fill:#e6e6e6;}.cls-3{fill:none;}.cls-4{fill:#d9e021;}.cls-5,.cls-9{fill:#ff1d25;}.cls-6{fill:gray;}</style></defs><title>topHat</title><g id="Layer_2" data-name="Layer 2"><g id="TopHat"><path class="cls-1" d="M40,128.83c0,.21,0,.42,0,.63a14.86,14.86,0,0,0-2-.13,16,16,0,0,0-15.93,14.49c-.05.5-.07,1-.07,1.51a15.8,15.8,0,0,0,1.74,7.25,54.41,54.41,0,0,1-9.24.75,56.75,56.75,0,0,1-7-.42A37.9,37.9,0,0,1,7,146.83c0-1,0-2,.12-3C8.39,127.27,19.94,114.33,34,114.33A22.84,22.84,0,0,1,42.44,116C41,118.73,40,123.46,40,128.83Z"/><line class="cls-1" x1="28" y1="115.33" x2="29" y2="131.33"/><line class="cls-1" x1="14" y1="124.33" x2="26" y2="134.33"/><line class="cls-1" x1="8" y1="137.33" x2="22" y2="140.33"/><path class="cls-2" d="M92.92,164.33a28,28,0,0,1-55.84,0Z"/><path class="cls-2" d="M93,115.43v36.9c0,.67,0,1.34-.08,2H37.08c-.06-.66-.08-1.33-.08-2v-37a10,10,0,0,1,10-10H82.9A10.12,10.12,0,0,1,93,115.43Z"/><path class="cls-1" d="M91.44,128.83c0,.21,0,.42,0,.63a14.86,14.86,0,0,1,2-.13,16,16,0,0,1,15.93,14.49c0,.5.07,1,.07,1.51a15.8,15.8,0,0,1-1.74,7.25,54.41,54.41,0,0,0,9.24.75,56.75,56.75,0,0,0,7-.42,37.9,37.9,0,0,0,.48-6.08c0-1,0-2-.12-3-1.27-16.52-12.82-29.46-26.88-29.46A22.84,22.84,0,0,0,89,116C90.47,118.73,91.44,123.46,91.44,128.83Z"/><line class="cls-3" x1="103.44" y1="115.33" x2="102.44" y2="131.33"/><line class="cls-3" x1="117.44" y1="124.33" x2="105.44" y2="134.33"/><line class="cls-3" x1="123.44" y1="137.33" x2="109.44" y2="140.33"/><ellipse class="cls-4" cx="73.5" cy="121.33" rx="3.5" ry="4"/><ellipse class="cls-4" cx="61.5" cy="121.33" rx="3.5" ry="4"/><ellipse class="cls-4" cx="48.5" cy="121.33" rx="3.5" ry="4"/><path class="cls-2" d="M31,164.05a17.47,17.47,0,0,1-.33,3.42A7.73,7.73,0,0,1,26,169.05a7.52,7.52,0,0,1-1.91-.24,9.29,9.29,0,0,0,.16-1.76,8.88,8.88,0,0,0-6.34-8.76,7.62,7.62,0,0,0-4.74.31,9,9,0,0,0-5.42,8.45,9.53,9.53,0,0,0,1.08,4.45,7.57,7.57,0,0,1-6.32-.3,17.63,17.63,0,0,1,1.42-16.87h0A14.61,14.61,0,0,1,16,147.69a14.12,14.12,0,0,1,9.16,3.41A16.89,16.89,0,0,1,31,164.05Z"/><path class="cls-2" d="M131,164.05a17.47,17.47,0,0,1-.33,3.42,7.73,7.73,0,0,1-4.67,1.58,7.52,7.52,0,0,1-1.91-.24,9.29,9.29,0,0,0,.16-1.76,8.88,8.88,0,0,0-6.34-8.76,7.62,7.62,0,0,0-4.74.31,9,9,0,0,0-5.42,8.45,9.53,9.53,0,0,0,1.08,4.45,7.57,7.57,0,0,1-6.32-.3,17.63,17.63,0,0,1,1.42-16.87h0A14.61,14.61,0,0,1,116,147.69a14.12,14.12,0,0,1,9.16,3.41A16.89,16.89,0,0,1,131,164.05Z"/><line class="cls-3" x1="93" y1="154.33" x2="92.92" y2="154.33"/><line class="cls-3" x1="37.08" y1="154.33" x2="37" y2="154.33"/><rect class="cls-5" x="37" y="154.33" width="56" height="9"/><line class="cls-3" x1="17" y1="63.33" x2="111" y2="63.33"/><path class="cls-2" d="M97,63.33c0,19.88-14.77,36-33,36s-33-16.12-33-36,14.77-36,33-36a29,29,0,0,1,3.62.22,56.21,56.21,0,0,0,7.55,5.63C79.07,35.36,84,37.85,88,38.63A37.67,37.67,0,0,1,97,63.33Z"/><circle class="cls-4" cx="12.5" cy="62.83" r="4.5"/><circle class="cls-4" cx="115.5" cy="62.83" r="4.5"/><path class="cls-6" d="M70,65.33c-.22,4.46-3.49,8-7.48,8s-7.26-3.54-7.48-8Z"/><ellipse class="cls-7" cx="46.5" cy="56.33" rx="2.5" ry="4"/><ellipse class="cls-7" cx="79.5" cy="56.33" rx="2.5" ry="4"/><path class="cls-8" d="M103.88,16.82A31.85,31.85,0,0,0,96,23.74a41.67,41.67,0,0,0-5,7.55,50,50,0,0,1-13.61-4.68,53,53,0,0,1-8.25-5.17,44.1,44.1,0,0,0,4.55-7.18c.59-1.18,1.13-2.35,1.61-3.54A41.53,41.53,0,0,0,78,.62a52.5,52.5,0,0,1,10.52,4C95.32,8.07,100.71,12.5,103.88,16.82Z"/><path class="cls-9" d="M96,23.74a41.67,41.67,0,0,0-5,7.55,50,50,0,0,1-13.61-4.68,53,53,0,0,1-8.25-5.17,44.1,44.1,0,0,0,4.55-7.18c.59-1.18,1.13-2.35,1.61-3.54A55.28,55.28,0,0,1,84.67,15,51.63,51.63,0,0,1,96,23.74Z"/><path class="cls-8" d="M93.63,41.72a8.94,8.94,0,0,1-5.59.34c-3.84-.75-8.42-2.89-12.39-5l-.3-.15L73.66,36a63.68,63.68,0,0,1-8.45-6.31c-.76-.66-1.49-1.31-2.15-1.94-2.43-2.34-4-4.38-3.14-4.94a20.64,20.64,0,0,1,2.34,0,30.46,30.46,0,0,1,5,.87c.64-.71,1.27-1.46,1.86-2.24a53,53,0,0,0,8.25,5.17A50,50,0,0,0,91,31.29c-.54,1-1,2.09-1.51,3.19-.22.49-.41,1-.6,1.48C92.42,38.39,95.06,40.77,93.63,41.72Z"/></g></g></svg>